<?xml version="1.0" standalone="no"?>
<!DOCTYPE svg PUBLIC "-//W3C//DTD SVG 20010904//EN"
 "http://www.w3.org/TR/2001/REC-SVG-20010904/DTD/svg10.dtd">
<svg version="1.0" xmlns="http://www.w3.org/2000/svg"
 width="164.000000pt" height="125.000000pt" viewBox="0 0 164.000000 125.000000"
 preserveAspectRatio="xMidYMid meet">
<metadata>
Created by potrace 1.16, written by Peter Selinger 2001-2019
</metadata>
<g transform="translate(0.000000,125.000000) scale(0.100000,-0.100000)"
fill="#000000" stroke="none">
<path d="M0 625 l0 -625 820 0 820 0 0 625 0 625 -820 0 -820 0 0 -625z m420
516 c30 -32 65 -64 77 -70 39 -20 111 -13 191 19 78 32 119 33 142 5 9 -11 1
-19 -37 -42 -76 -44 -140 -62 -223 -62 -122 0 -173 26 -216 111 -13 26 -34 54
-46 63 -23 16 -23 16 -4 31 30 21 55 9 116 -55z m-217 -265 c76 -32 91 -74 73
-197 -7 -51 -6 -58 14 -77 41 -38 97 -38 202 -2 107 37 149 37 247 -4 41 -18
79 -26 118 -26 46 0 288 34 401 56 20 4 22 10 22 59 l0 55 50 0 c86 0 146 -34
181 -102 21 -41 24 -80 9 -109 -10 -18 -25 -19 -404 -19 -377 0 -397 1 -449
21 l-56 21 -62 -21 c-55 -18 -86 -21 -245 -21 -213 0 -210 -1 -200 88 6 55 41
238 52 275 6 21 6 21 47 3z m-43 -469 c0 -6 -4 -27 -9 -45 -5 -17 -6 -32 -2
-32 5 0 12 19 17 43 8 36 13 42 37 45 33 4 33 3 7 -101 -27 -107 -36 -127 -58
-127 -28 0 -31 8 -20 47 5 19 7 37 4 40 -2 3 -10 -14 -16 -37 -11 -42 -28 -57
-54 -47 -12 5 -12 14 0 64 39 154 43 163 69 163 14 0 25 -6 25 -13z m225 3 c9
-14 -42 -202 -57 -211 -17 -11 -105 -12 -112 -1 -4 7 29 149 49 210 5 14 111
17 120 2z m280 -25 c0 -25 -4 -30 -27 -33 -16 -2 -28 1 -28 7 0 6 -4 11 -10
11 -5 0 -10 -9 -10 -20 0 -15 7 -20 28 -20 16 0 31 -3 34 -6 10 -10 -21 -109
-39 -121 -18 -14 -61 -17 -87 -7 -10 4 -16 18 -16 35 0 26 4 29 30 29 17 0 30
-5 30 -11 0 -5 5 -7 10 -4 24 15 9 35 -26 35 -29 0 -34 3 -30 18 3 9 10 37 16
62 7 25 14 49 17 53 3 4 28 7 56 5 50 -3 52 -4 52 -33z m153 22 c11 -13 3 -70
-20 -150 -14 -52 -25 -67 -49 -67 -23 0 -23 7 1 100 23 87 23 87 11 75 -4 -6
-16 -41 -26 -80 -21 -80 -30 -95 -56 -95 -24 0 -24 0 7 125 l26 105 48 0 c26
0 52 -6 58 -13z m150 -9 c-2 -16 -11 -24 -29 -26 -37 -4 -48 -42 -12 -42 35 0
29 -43 -7 -49 -42 -5 -55 -41 -15 -41 26 0 29 -7 19 -34 -4 -12 -20 -16 -55
-16 -45 0 -49 2 -49 23 0 13 6 46 14 73 8 27 20 68 26 92 l11 42 50 0 c47 0
50 -2 47 -22z m149 5 c4 -9 -4 -60 -18 -112 -22 -89 -26 -96 -49 -96 -26 0
-29 9 -16 60 4 14 3 25 -2 25 -4 0 -12 -19 -18 -42 -9 -42 -35 -61 -55 -41
-10 10 34 187 51 208 18 22 99 20 107 -2z m100 -5 l-6 -23 16 23 c14 20 63 32
63 15 0 -3 -12 -27 -27 -52 -22 -37 -28 -58 -28 -106 0 -55 -2 -60 -23 -63
-17 -3 -25 2 -29 19 l-6 23 -8 -22 c-8 -20 -38 -30 -51 -17 -4 5 34 178 47
213 2 6 16 12 31 12 22 0 25 -3 21 -22z m211 0 c-2 -16 -11 -24 -28 -27 -43
-6 -55 -41 -14 -41 20 0 25 -4 20 -16 -3 -9 -6 -19 -6 -24 0 -5 -12 -10 -27
-12 -36 -4 -44 -35 -10 -40 21 -3 23 -6 16 -25 -7 -20 -16 -23 -59 -23 -27 0
-50 3 -50 6 0 11 51 208 56 216 3 4 28 8 55 8 47 0 50 -2 47 -22z m142 7 c10
-12 10 -24 0 -61 -7 -25 -19 -48 -27 -51 -10 -4 -12 -17 -7 -54 6 -48 6 -49
-20 -49 -22 0 -28 6 -33 33 l-7 32 -6 -30 c-4 -24 -11 -31 -33 -33 -15 -2 -27
2 -27 8 0 6 12 58 26 115 l26 105 48 0 c30 0 52 -6 60 -15z"/>
</g>
</svg>
